<svg width="16" height="16" viewBox="0 0 16 16" fill="none" xmlns="http://www.w3.org/2000/svg">
<path d="M12.0625 7.1875C12.4077 7.1875 12.6875 6.90768 12.6875 6.5625C12.6875 6.21732 12.4077 5.9375 12.0625 5.9375C11.7173 5.9375 11.4375 6.21732 11.4375 6.5625C11.4375 6.90768 11.7173 7.1875 12.0625 7.1875Z" fill="#BBBBBB"/>
<path d="M13.5 1.25H12.6875V0.625C12.6875 0.28125 12.4062 0 12.0625 0C11.7188 0 11.4375 0.28125 11.4375 0.625V1.25H8.59375V0.625C8.59375 0.28125 8.3125 0 7.96875 0C7.625 0 7.34375 0.28125 7.34375 0.625V1.25H4.53125V0.625C4.53125 0.28125 4.25 0 3.90625 0C3.5625 0 3.28125 0.28125 3.28125 0.625V1.25H2.5C1.12188 1.25 0 2.37188 0 3.75V13.5C0 14.8781 1.12188 16 2.5 16H7.28125C7.625 16 7.90625 15.7188 7.90625 15.375C7.90625 15.0312 7.625 14.75 7.28125 14.75H2.5C1.80938 14.75 1.25 14.1906 1.25 13.5V3.75C1.25 3.05938 1.80938 2.5 2.5 2.5H3.28125V3.125C3.28125 3.46875 3.5625 3.75 3.90625 3.75C4.25 3.75 4.53125 3.46875 4.53125 3.125V2.5H7.34375V3.125C7.34375 3.46875 7.625 3.75 7.96875 3.75C8.3125 3.75 8.59375 3.46875 8.59375 3.125V2.5H11.4375V3.125C11.4375 3.46875 11.7188 3.75 12.0625 3.75C12.4062 3.75 12.6875 3.46875 12.6875 3.125V2.5H13.5C14.1906 2.5 14.75 3.05938 14.75 3.75V11.375C14.75 11.7188 15.0312 12 15.375 12C15.7188 12 16 11.7188 16 11.375V3.75C16 2.37188 14.8781 1.25 13.5 1.25Z" fill="#BBBBBB"/>
<path d="M9.34375 7.1875C9.68893 7.1875 9.96875 6.90768 9.96875 6.5625C9.96875 6.21732 9.68893 5.9375 9.34375 5.9375C8.99857 5.9375 8.71875 6.21732 8.71875 6.5625C8.71875 6.90768 8.99857 7.1875 9.34375 7.1875Z" fill="#BBBBBB"/>
<path d="M6.625 9.90625C6.97018 9.90625 7.25 9.62643 7.25 9.28125C7.25 8.93607 6.97018 8.65625 6.625 8.65625C6.27982 8.65625 6 8.93607 6 9.28125C6 9.62643 6.27982 9.90625 6.625 9.90625Z" fill="#BBBBBB"/>
<path d="M3.90625 7.1875C4.25143 7.1875 4.53125 6.90768 4.53125 6.5625C4.53125 6.21732 4.25143 5.9375 3.90625 5.9375C3.56107 5.9375 3.28125 6.21732 3.28125 6.5625C3.28125 6.90768 3.56107 7.1875 3.90625 7.1875Z" fill="#BBBBBB"/>
<path d="M3.90625 9.90625C4.25143 9.90625 4.53125 9.62643 4.53125 9.28125C4.53125 8.93607 4.25143 8.65625 3.90625 8.65625C3.56107 8.65625 3.28125 8.93607 3.28125 9.28125C3.28125 9.62643 3.56107 9.90625 3.90625 9.90625Z" fill="#BBBBBB"/>
<path d="M3.90625 12.625C4.25143 12.625 4.53125 12.3452 4.53125 12C4.53125 11.6548 4.25143 11.375 3.90625 11.375C3.56107 11.375 3.28125 11.6548 3.28125 12C3.28125 12.3452 3.56107 12.625 3.90625 12.625Z" fill="#BBBBBB"/>
<path d="M6.625 12.625C6.97018 12.625 7.25 12.3452 7.25 12C7.25 11.6548 6.97018 11.375 6.625 11.375C6.27982 11.375 6 11.6548 6 12C6 12.3452 6.27982 12.625 6.625 12.625Z" fill="#BBBBBB"/>
<path d="M9.34375 9.90625C9.68893 9.90625 9.96875 9.62643 9.96875 9.28125C9.96875 8.93607 9.68893 8.65625 9.34375 8.65625C8.99857 8.65625 8.71875 8.93607 8.71875 9.28125C8.71875 9.62643 8.99857 9.90625 9.34375 9.90625Z" fill="#BBBBBB"/>
<path d="M9.34375 12.625C9.68893 12.625 9.96875 12.3452 9.96875 12C9.96875 11.6548 9.68893 11.375 9.34375 11.375C8.99857 11.375 8.71875 11.6548 8.71875 12C8.71875 12.3452 8.99857 12.625 9.34375 12.625Z" fill="#BBBBBB"/>
<path d="M12.0625 9.90625C12.4077 9.90625 12.6875 9.62643 12.6875 9.28125C12.6875 8.93607 12.4077 8.65625 12.0625 8.65625C11.7173 8.65625 11.4375 8.93607 11.4375 9.28125C11.4375 9.62643 11.7173 9.90625 12.0625 9.90625Z" fill="#BBBBBB"/>
<path d="M12.0625 12.625C12.4077 12.625 12.6875 12.3452 12.6875 12C12.6875 11.6548 12.4077 11.375 12.0625 11.375C11.7173 11.375 11.4375 11.6548 11.4375 12C11.4375 12.3452 11.7173 12.625 12.0625 12.625Z" fill="#BBBBBB"/>
<path d="M6.625 7.1875C6.97018 7.1875 7.25 6.90768 7.25 6.5625C7.25 6.21732 6.97018 5.9375 6.625 5.9375C6.27982 5.9375 6 6.21732 6 6.5625C6 6.90768 6.27982 7.1875 6.625 7.1875Z" fill="#BBBBBB"/>
<path d="M14.75 3.75V13.5C14.75 14.1906 14.1906 14.75 13.5 14.75H6.53125C6.1875 14.75 5.90625 15.0312 5.90625 15.375C5.90625 15.7188 6.1875 16 6.53125 16H13.5C14.8781 16 16 14.8781 16 13.5V3.75" fill="#BBBBBB"/>
</svg>
