<svg width="18" height="10" viewBox="0 0 18 10" fill="none" xmlns="http://www.w3.org/2000/svg">
<g clip-path="url(#clip0)">
<path d="M13.3525 10C13.0574 10 12.7992 9.88723 12.5779 9.69926C12.0984 9.24814 12.0984 8.53385 12.5042 8.04513L15.2705 5.00002L12.541 1.9549C12.0984 1.46618 12.1353 0.751895 12.6148 0.300767C13.0943 -0.150361 13.7951 -0.112767 14.2378 0.375955L17.705 4.21054C18.1107 4.66167 18.1107 5.33836 17.705 5.78949L14.2009 9.62408C13.9796 9.88723 13.6845 10 13.3525 10Z" fill="white"/>
<path d="M15.2336 6.16545H8.7787C8.15165 6.16545 7.63525 5.63914 7.63525 5.00004C7.63525 4.36094 8.15165 3.83463 8.7787 3.83463H15.2336C15.8607 3.83463 16.3771 4.36094 16.3771 5.00004C16.3771 5.63914 15.8607 6.16545 15.2336 6.16545Z" fill="white"/>
<path d="M6.15991 6.16545H4.61073C3.98368 6.16545 3.46729 5.63914 3.46729 5.00004C3.46729 4.36094 3.98368 3.83463 4.61073 3.83463H6.15991C6.78696 3.83463 7.30335 4.36094 7.30335 5.00004C7.30335 5.63914 6.82384 6.16545 6.15991 6.16545Z" fill="white"/>
<path d="M1.84426 6.16545H1.14344C0.516393 6.16545 0 5.63914 0 5.00004C0 4.36094 0.516393 3.83463 1.14344 3.83463H1.84426C2.47131 3.83463 2.98771 4.36094 2.98771 5.00004C2.98771 5.63914 2.47131 6.16545 1.84426 6.16545Z" fill="white"/>
<path d="M13.3525 10C13.0574 10 12.7992 9.88723 12.5779 9.69926C12.0984 9.24814 12.0984 8.53385 12.5042 8.04513L15.2705 5.00002L12.541 1.9549C12.0984 1.46618 12.1353 0.751895 12.6148 0.300767C13.0943 -0.150361 13.7951 -0.112767 14.2378 0.375955L17.705 4.21054C18.1107 4.66167 18.1107 5.33836 17.705 5.78949L14.2009 9.62408C13.9796 9.88723 13.6845 10 13.3525 10Z" fill="white"/>
</g>
<defs>
<clipPath id="clip0">
<rect width="18" height="10" fill="white"/>
</clipPath>
</defs>
</svg>
